<?xml version="1.0" standalone="no"?>
<!DOCTYPE svg PUBLIC "-//W3C//DTD SVG 20010904//EN"
 "http://www.w3.org/TR/2001/REC-SVG-20010904/DTD/svg10.dtd">
<svg version="1.0" xmlns="http://www.w3.org/2000/svg"
 width="310.000000pt" height="310.000000pt" viewBox="0 0 310.000000 310.000000"
 preserveAspectRatio="xMidYMid meet">

<g transform="translate(0.000000,310.000000) scale(0.100000,-0.100000)"
fill="#000000" stroke="none">
<path d="M490 3084 c-231 -49 -426 -247 -475 -479 -22 -104 -22 -2016 0 -2120
46 -218 220 -406 434 -469 49 -14 173 -16 1106 -16 1168 0 1091 -4 1230 68 92
49 198 155 247 247 72 139 68 62 68 1230 0 933 -2 1057 -16 1106 -63 214 -251
388 -469 434 -101 21 -2026 21 -2125 -1z m1390 -1111 c73 -24 149 -95 186
-175 28 -61 29 -67 29 -223 0 -156 -1 -162 -29 -223 -39 -84 -117 -156 -193
-178 -121 -35 -253 -2 -335 83 -110 113 -139 372 -62 544 34 75 115 153 182
173 64 20 159 19 222 -1z m-979 -393 c82 -217 149 -398 149 -402 0 -5 -34 -8
-75 -8 -41 0 -75 4 -75 9 0 6 -14 48 -31 95 l-31 86 -153 0 -153 0 -32 -95
-32 -95 -74 0 c-41 0 -74 2 -74 3 0 3 84 227 282 755 l20 53 65 -3 66 -3 148
-395z m389 -5 l0 -405 -70 0 -70 0 0 405 0 405 70 0 70 0 0 -405z m1460 345
l0 -60 -185 0 -185 0 0 -120 0 -120 165 0 165 0 0 -55 0 -55 -165 0 -165 0 0
-170 0 -170 -70 0 -70 0 0 398 c0 219 3 402 7 405 3 4 118 7 255 7 l248 0 0
-60z"/>
<path d="M1693 1855 c-43 -18 -89 -85 -102 -146 -6 -27 -11 -92 -11 -143 0
-194 63 -286 198 -286 84 0 150 62 171 161 14 64 14 204 0 268 -13 63 -60 128
-104 147 -43 18 -110 17 -152 -1z"/>
<path d="M632 1647 c-29 -84 -52 -155 -52 -159 0 -5 49 -8 109 -8 l109 0 -55
157 c-30 87 -55 159 -56 160 -2 1 -26 -66 -55 -150z"/>
</g>
</svg>
